<svg width="18" height="15" viewBox="0 0 18 15" fill="none" xmlns="http://www.w3.org/2000/svg">
<path d="M7.11 1.60169C5.83981 0.995246 4.06442 0.698176 1.6875 0.687629C1.46333 0.684583 1.24357 0.74995 1.0575 0.875012C0.904779 0.978241 0.779762 1.11742 0.693448 1.2803C0.607134 1.44318 0.562167 1.62478 0.562502 1.80911V11.8673C0.562502 12.5472 1.04625 13.0602 1.6875 13.0602C4.18606 13.0602 6.69235 13.2936 8.19352 14.7125C8.21405 14.732 8.23986 14.745 8.26775 14.75C8.29563 14.7549 8.32435 14.7516 8.35034 14.7404C8.37634 14.7291 8.39846 14.7105 8.41395 14.6868C8.42945 14.6631 8.43764 14.6354 8.4375 14.607V2.75552C8.43756 2.67556 8.42046 2.59652 8.38734 2.52373C8.35423 2.45095 8.30587 2.38613 8.24555 2.33364C7.90169 2.03968 7.51973 1.79347 7.11 1.60169V1.60169ZM16.9425 0.873957C16.7563 0.749206 16.5366 0.684205 16.3125 0.687629C13.9356 0.698176 12.1602 0.99384 10.89 1.60169C10.4803 1.79313 10.0982 2.03885 9.7541 2.33224C9.69392 2.38481 9.64568 2.44967 9.61263 2.52243C9.57958 2.5952 9.56249 2.67419 9.5625 2.75411V14.6063C9.56249 14.6336 9.5705 14.6602 9.58555 14.6828C9.6006 14.7055 9.62201 14.7232 9.64709 14.7338C9.67218 14.7443 9.69982 14.7472 9.72655 14.7421C9.75328 14.737 9.77791 14.7242 9.79735 14.7051C10.6998 13.8086 12.2836 13.0591 16.3139 13.0595C16.6123 13.0595 16.8984 12.9409 17.1094 12.73C17.3204 12.519 17.4389 12.2328 17.4389 11.9345V1.80946C17.4393 1.62476 17.3942 1.4428 17.3077 1.27964C17.2211 1.11649 17.0957 0.977159 16.9425 0.873957V0.873957Z" fill="black"/>
</svg>
