<svg width="14" height="18" viewBox="0 0 14 18" fill="none" xmlns="http://www.w3.org/2000/svg">
<path d="M12.7656 1.6875H10.375V0.984375C10.375 0.872487 10.3306 0.765181 10.2514 0.686064C10.1723 0.606947 10.065 0.5625 9.95312 0.5625H4.04688C3.93499 0.5625 3.82768 0.606947 3.74856 0.686064C3.66945 0.765181 3.625 0.872487 3.625 0.984375V1.6875H1.23438C1.12249 1.6875 1.01518 1.73195 0.936064 1.81106C0.856947 1.89018 0.8125 1.99749 0.8125 2.10938V17.0156C0.8125 17.1275 0.856947 17.2348 0.936064 17.3139C1.01518 17.3931 1.12249 17.4375 1.23438 17.4375H12.7656C12.8775 17.4375 12.9848 17.3931 13.0639 17.3139C13.1431 17.2348 13.1875 17.1275 13.1875 17.0156V2.10938C13.1875 1.99749 13.1431 1.89018 13.0639 1.81106C12.9848 1.73195 12.8775 1.6875 12.7656 1.6875ZM9.80793 3.9375H4.19207V2.8125H9.80793V3.9375Z" fill="black"/>
</svg>
