<svg width="1597" height="217" viewBox="0 0 1597 217" fill="none" xmlns="http://www.w3.org/2000/svg">
<g clip-path="url(#clip0_1_2)">
<path d="M346.26 213.63L273.31 213.58L272.86 212.79L236.81 150.39L248.63 129.9H224.98L188.35 66.25L224.83 3.05L297.77 3.13L309.78 23.94L321.8 3.11L394.8 3.15L431.26 66.34L394.58 129.9H370.93L382.75 150.39L346.26 213.62V213.63ZM275.13 210.43L344.43 210.48L379.1 150.4L367.28 129.91H252.27L240.45 150.4L275.14 210.43H275.13ZM369.1 126.75H392.75L427.61 66.35L392.97 6.31L323.62 6.27L311.6 27.1L369.11 126.75H369.1ZM254.09 126.75H365.46L309.78 30.26L254.09 126.75ZM226.8 126.75H250.45L307.96 27.1L295.95 6.29L226.65 6.21L192 66.26L226.81 126.75H226.8Z" fill="black"/>
<path d="M227.103 3.84187L224.366 5.42044L343.977 212.844L346.715 211.266L227.103 3.84187Z" fill="black"/>
<path d="M392.547 7.1144L272.81 214.338L275.537 215.914L395.275 8.69035L392.547 7.1144Z" fill="black"/>
<path d="M429.43 67.89H191.53V71.05H429.43V67.89Z" fill="black"/>
<path d="M0 28.22H21.68L93.02 120.29V28.22H116.04V161.38H96.45L23.02 66.65V161.38H0V28.22Z" fill="black"/>
<path d="M239.5 95.18V94.8C239.5 57.33 268.41 25.94 309.31 25.94C350.21 25.94 378.74 56.95 378.74 94.42V94.8C378.74 132.27 349.83 163.66 308.93 163.66C268.03 163.66 239.5 132.65 239.5 95.18V95.18ZM356.6 95.2V94.8C356.6 67.56 336.77 45.12 308.92 45.12C281.07 45.12 261.65 67.15 261.65 94.4V94.8C261.65 122.04 281.48 144.48 309.33 144.48C337.18 144.48 356.6 122.45 356.6 95.2V95.2Z" fill="black"/>
<path d="M484.52 28.22H509.82L541.59 126.95L574.31 27.84H594.09L626.81 126.95L658.58 28.22H683.12L636.9 162.33H616.55L583.83 66.65L551.11 162.33H530.76L484.52 28.22Z" fill="black"/>
<path d="M802.21 28.22H825.61V83.58H889.14V28.22H912.54V161.38H889.14V105.26H825.61V161.38H802.21V28.22Z" fill="black"/>
<path d="M1041.9 28.22H1140.63V49.14H1065.3V83.76H1132.07V104.88H1065.3V140.45H1141.58V161.37H1041.9V28.22Z" fill="black"/>
<path d="M1264.47 28.22H1323.82C1340.56 28.22 1353.69 33.17 1362.24 41.54C1369.28 48.77 1373.27 58.66 1373.27 70.26V70.64C1373.27 92.52 1360.14 105.64 1341.69 110.97L1377.64 161.38H1349.87L1317.15 114.96H1287.86V161.38H1264.46V28.22H1264.47ZM1322.11 94.23C1338.85 94.23 1349.5 85.48 1349.5 71.97V71.59C1349.5 57.33 1339.23 49.53 1321.92 49.53H1287.87V94.23H1322.11V94.23Z" fill="black"/>
<path d="M1497.12 28.22H1595.85V49.14H1520.52V83.76H1587.29V104.88H1520.52V140.45H1596.8V161.37H1497.12V28.22Z" fill="black"/>
<path d="M348.08 216.79L271.49 216.74L233.16 150.4L243.16 133.07H223.15L184.7 66.26L223 -0.0999985L299.6 -0.0199985L309.78 17.63L319.98 -0.0399985L396.62 1.52737e-06L434.91 66.35L396.41 133.07H376.4L386.4 150.4L348.09 216.79H348.08ZM275.13 210.43L344.44 210.48L379.11 150.4L365.46 126.75H392.75L427.61 66.35L392.97 6.31L323.62 6.27L309.78 30.26L295.95 6.29L226.65 6.21L192 66.26L226.81 126.75H254.1L240.45 150.39L275.14 210.42L275.13 210.43Z" fill="black"/>
</g>
<defs>
<clipPath id="clip0_1_2">
<rect width="1596.8" height="216.79" fill="white"/>
</clipPath>
</defs>
</svg>
