<svg width="19" height="19" viewBox="0 0 19 19" fill="none" xmlns="http://www.w3.org/2000/svg">
<path d="M18.1545 0.853911C17.9845 0.681907 17.7819 0.545456 17.5586 0.452506C17.3353 0.359556 17.0958 0.311965 16.8539 0.312505L11.8118 0.312505C11.4811 0.313121 11.1639 0.444141 10.9292 0.677133L0.849599 10.7547C0.505662 11.0993 0.3125 11.5663 0.3125 12.0532C0.3125 12.5401 0.505662 13.0071 0.849599 13.3518L5.64843 18.1506C5.99316 18.4947 6.46032 18.6879 6.94739 18.6879C7.43446 18.6879 7.90163 18.4947 8.24636 18.1506L18.3218 8.07717C18.5553 7.8428 18.6868 7.52573 18.6877 7.19493V2.15C18.6892 1.90941 18.6428 1.67091 18.5513 1.4484C18.4597 1.22589 18.3249 1.02381 18.1545 0.853911V0.853911ZM14.7502 5.5625C14.4906 5.5625 14.2369 5.48553 14.021 5.34131C13.8052 5.19709 13.637 4.9921 13.5376 4.75228C13.4383 4.51245 13.4123 4.24855 13.4629 3.99395C13.5136 3.73935 13.6386 3.50548 13.8221 3.32193C14.0057 3.13837 14.2395 3.01337 14.4941 2.96272C14.7487 2.91208 15.0126 2.93807 15.2525 3.03741C15.4923 3.13675 15.6973 3.30498 15.8415 3.52082C15.9857 3.73666 16.0627 3.99042 16.0627 4.25C16.0627 4.5981 15.9244 4.93194 15.6783 5.17808C15.4321 5.42422 15.0983 5.5625 14.7502 5.5625Z" fill="black"/>
</svg>
