<svg width="22" height="25" viewBox="0 0 22 25" fill="none" xmlns="http://www.w3.org/2000/svg">
<path d="M19.3359 6.52565C19.0287 6.52576 18.7257 6.60436 18.451 6.75522C18.1763 6.90607 17.9375 7.12502 17.7535 7.39469C17.5695 7.66435 17.4455 7.97731 17.3911 8.3087C17.3368 8.6401 17.3538 8.98081 17.4406 9.30378L14.3739 12.6639C13.9695 12.5163 13.5323 12.5163 13.1278 12.6639L10.8543 10.1725C10.9291 9.85263 10.9362 9.51822 10.875 9.19486C10.8138 8.87151 10.6859 8.56777 10.5012 8.30688C10.3164 8.04598 10.0797 7.83484 9.80901 7.68959C9.53837 7.54434 9.24101 7.46882 8.93965 7.46882C8.63829 7.46882 8.34092 7.54434 8.07028 7.68959C7.79964 7.83484 7.56289 8.04598 7.37813 8.30688C7.19337 8.56777 7.0655 8.87151 7.00429 9.19486C6.94308 9.51822 6.95015 9.85263 7.02496 10.1725L3.22266 14.3364C2.80052 14.1995 2.34877 14.2206 1.93883 14.3965C1.52888 14.5724 1.18411 14.893 0.959025 15.3076C0.733936 15.7222 0.641362 16.2072 0.695936 16.6859C0.750509 17.1646 0.949117 17.6098 1.26037 17.951C1.57162 18.2921 1.97776 18.5099 2.41459 18.5699C2.85142 18.6298 3.29403 18.5286 3.67245 18.282C4.05088 18.0355 4.34353 17.6578 4.50416 17.2086C4.66479 16.7594 4.68423 16.2644 4.55941 15.8018L8.31359 11.6883C8.71802 11.836 9.15526 11.836 9.55969 11.6883L11.8336 14.1801C11.7588 14.5 11.7517 14.8344 11.8129 15.1578C11.8741 15.4811 12.002 15.7849 12.1868 16.0457C12.3715 16.3066 12.6083 16.5178 12.8789 16.663C13.1496 16.8083 13.4469 16.8838 13.7483 16.8838C14.0496 16.8838 14.347 16.8083 14.6176 16.663C14.8883 16.5178 15.125 16.3066 15.3098 16.0457C15.4946 15.7849 15.6224 15.4811 15.6836 15.1578C15.7449 14.8344 15.7378 14.5 15.663 14.1801L18.7773 10.7691C19.0492 10.857 19.3352 10.8798 19.6158 10.8359C19.8965 10.7921 20.1652 10.6825 20.4038 10.5148C20.6424 10.3471 20.8453 10.1251 20.9987 9.86389C21.1521 9.60268 21.2525 9.30836 21.293 9.0009C21.3334 8.69344 21.3131 8.38004 21.2333 8.08196C21.1535 7.78388 21.0161 7.50809 20.8305 7.27331C20.6449 7.03854 20.4153 6.85026 20.1575 6.72126C19.8996 6.59225 19.6194 6.52554 19.3359 6.52565V6.52565Z" fill="black"/>
</svg>
