<svg width="12" height="16" viewBox="0 0 12 16" fill="none" xmlns="http://www.w3.org/2000/svg">
<path d="M11.6144 14.0163C11.3072 11.3131 10.0735 10.1927 9.17247 9.37567C8.5495 8.8086 8.24997 8.51364 8.24997 8.00001C8.24997 7.49341 8.54844 7.20407 9.16965 6.6486C10.0813 5.83403 11.3297 4.71817 11.6151 1.97845C11.6379 1.74827 11.6122 1.51587 11.5395 1.29628C11.4668 1.07669 11.3489 0.874799 11.1932 0.70368C11.0271 0.520906 10.8244 0.374983 10.5984 0.275314C10.3723 0.175645 10.1279 0.124444 9.88087 0.125009H2.11907C1.87169 0.124236 1.62689 0.175334 1.40048 0.275007C1.17407 0.374679 0.971068 0.520711 0.804576 0.70368C0.649417 0.875036 0.531896 1.07701 0.459596 1.29658C0.387295 1.51614 0.361819 1.74843 0.38481 1.97845C0.669225 4.70938 1.91305 5.81716 2.82114 6.62575C3.44833 7.18438 3.74997 7.47583 3.74997 8.00001C3.74997 8.53087 3.44762 8.82829 2.81833 9.39747C1.92184 10.2096 0.691373 11.3216 0.385514 14.0163C0.360679 14.2454 0.384479 14.4772 0.455359 14.6965C0.526238 14.9158 0.642601 15.1177 0.796842 15.289C0.963683 15.4741 1.16767 15.6219 1.39549 15.7229C1.62332 15.8239 1.86987 15.8757 2.11907 15.875H9.88087C10.1301 15.8757 10.3766 15.8239 10.6044 15.7229C10.8323 15.6219 11.0363 15.4741 11.2031 15.289C11.3573 15.1177 11.4737 14.9158 11.5446 14.6965C11.6155 14.4772 11.6393 14.2454 11.6144 14.0163V14.0163ZM9.06911 14.1875H2.94594C2.39751 14.1875 2.24282 13.5547 2.62743 13.1624C3.55837 12.2188 5.43747 11.5431 5.43747 10.4609V6.87501C5.43747 6.17716 4.10153 5.64454 3.27501 4.51251C3.1386 4.32583 3.15231 4.06251 3.49895 4.06251H8.5168C8.81247 4.06251 8.8761 4.32372 8.7418 4.51075C7.92723 5.64454 6.56247 6.17364 6.56247 6.87501V10.4609C6.56247 11.5343 8.52102 12.1133 9.38903 13.1634C9.73883 13.5867 9.61649 14.1875 9.06911 14.1875V14.1875Z" fill="black"/>
</svg>
