<svg width="26" height="26" viewBox="0 0 26 26" fill="none" xmlns="http://www.w3.org/2000/svg">
<path d="M12.7861 0.46875C5.78759 0.46875 0.09375 6.00215 0.09375 12.8021C0.09375 19.6127 5.77722 25.1354 12.7861 25.1354C19.7845 25.1354 25.4784 19.6026 25.4784 12.8021C25.4784 5.99088 19.7955 0.46875 12.7861 0.46875ZM12.7861 19.028C11.2648 19.028 9.80583 18.4408 8.73013 17.3955C7.65443 16.3503 7.05011 14.9326 7.05011 13.4543C7.05011 11.9761 7.65443 10.5584 8.73013 9.51311C9.80583 8.46784 11.2648 7.88061 12.7861 7.88061H13.043L12.182 7.04455C12.0217 6.88886 11.9317 6.67771 11.9317 6.45753C11.9317 6.23736 12.0217 6.0262 12.182 5.87051C12.3422 5.71483 12.5595 5.62736 12.7861 5.62736C13.0126 5.62736 13.2299 5.71483 13.3902 5.87051L15.831 8.24231C15.9103 8.31939 15.9733 8.41091 16.0162 8.51163C16.0591 8.61235 16.0812 8.72031 16.0812 8.82933C16.0812 8.93835 16.0591 9.0463 16.0162 9.14702C15.9733 9.24774 15.9103 9.33926 15.831 9.41635L13.3902 11.7881C13.2299 11.9438 13.0126 12.0313 12.7861 12.0313C12.5595 12.0313 12.3422 11.9438 12.182 11.7881C12.0217 11.6325 11.9317 11.4213 11.9317 11.2011C11.9317 10.9809 12.0217 10.7698 12.182 10.6141L13.2803 9.5468C13.1351 9.54087 12.9691 9.54087 12.7861 9.54087C11.9895 9.54087 11.2109 9.77039 10.5486 10.2004C9.88628 10.6304 9.37008 11.2416 9.06526 11.9567C8.76043 12.6718 8.68068 13.4587 8.83608 14.2178C8.99147 14.9769 9.37504 15.6743 9.93828 16.2216C10.5015 16.7689 11.2191 17.1416 12.0004 17.2926C12.7816 17.4436 13.5914 17.3661 14.3273 17.0699C15.0632 16.7737 15.6922 16.2721 16.1347 15.6285C16.5772 14.985 16.8134 14.2283 16.8134 13.4543C16.8134 13.2342 16.9034 13.023 17.0636 12.8673C17.2239 12.7117 17.4411 12.6242 17.6677 12.6242C17.8943 12.6242 18.1116 12.7117 18.2718 12.8673C18.432 13.023 18.522 13.2342 18.522 13.4543C18.5202 14.932 17.9153 16.3487 16.84 17.3936C15.7647 18.4385 14.3068 19.0263 12.7861 19.028V19.028Z" fill="#717171"/>
</svg>
