<svg width="25" height="25" viewBox="0 0 25 25" fill="none" xmlns="http://www.w3.org/2000/svg">
<path d="M0 12.5C0 19.4032 5.59675 25 12.5 25C19.4032 25 25 19.4032 25 12.5C25 5.59675 19.4032 0 12.5 0C5.59675 0 0 5.59675 0 12.5ZM12.7794 7.00961C12.8691 7.09855 12.9404 7.20428 12.9892 7.32076C13.038 7.43724 13.0634 7.56219 13.0639 7.68848C13.0644 7.81477 13.04 7.93992 12.9921 8.05679C12.9442 8.17366 12.8738 8.27995 12.7849 8.36959L9.64062 11.5385H17.6683C17.9233 11.5385 18.1679 11.6398 18.3482 11.8201C18.5285 12.0004 18.6298 12.245 18.6298 12.5C18.6298 12.755 18.5285 12.9996 18.3482 13.1799C18.1679 13.3602 17.9233 13.4615 17.6683 13.4615H9.64062L12.7849 16.6304C12.8738 16.7201 12.9442 16.8265 12.992 16.9434C13.0399 17.0604 13.0642 17.1856 13.0636 17.3119C13.0631 17.4383 13.0376 17.5633 12.9888 17.6798C12.9399 17.7963 12.8686 17.902 12.7788 17.991C12.6891 18.0799 12.5827 18.1503 12.4658 18.1982C12.3489 18.246 12.2237 18.2703 12.0973 18.2698C11.971 18.2692 11.846 18.2438 11.7295 18.1949C11.613 18.146 11.5072 18.0747 11.4183 17.985L6.64724 13.1773C6.46851 12.9972 6.36822 12.7537 6.36822 12.5C6.36822 12.2463 6.46851 12.0028 6.64724 11.8227L11.4183 7.01502C11.5072 6.92518 11.613 6.85376 11.7296 6.80485C11.8462 6.75594 11.9713 6.73051 12.0977 6.73001C12.2242 6.72951 12.3495 6.75394 12.4664 6.80192C12.5834 6.8499 12.6898 6.92048 12.7794 7.00961Z" fill="#C6AF80" fill-opacity="0.5"/>
</svg>
