<svg width="16" height="16" viewBox="0 0 16 16" fill="none" xmlns="http://www.w3.org/2000/svg">
<path d="M8 0.96875C4.12297 0.96875 0.96875 4.12297 0.96875 8C0.96875 11.877 4.12297 15.0312 8 15.0312C11.877 15.0312 15.0312 11.877 15.0312 8C15.0312 4.12297 11.877 0.96875 8 0.96875ZM8 3.85156C8.18078 3.85156 8.35751 3.90517 8.50783 4.00561C8.65814 4.10605 8.7753 4.24881 8.84448 4.41583C8.91367 4.58285 8.93177 4.76664 8.8965 4.94395C8.86123 5.12126 8.77417 5.28413 8.64634 5.41196C8.51851 5.5398 8.35564 5.62685 8.17833 5.66212C8.00101 5.69739 7.81723 5.67929 7.6502 5.61011C7.48318 5.54093 7.34042 5.42377 7.23998 5.27345C7.13955 5.12313 7.08594 4.94641 7.08594 4.76562C7.08594 4.5232 7.18224 4.2907 7.35366 4.11929C7.52508 3.94787 7.75758 3.85156 8 3.85156ZM9.6875 11.7969H6.59375C6.44457 11.7969 6.30149 11.7376 6.196 11.6321C6.09051 11.5266 6.03125 11.3836 6.03125 11.2344C6.03125 11.0852 6.09051 10.9421 6.196 10.8366C6.30149 10.7311 6.44457 10.6719 6.59375 10.6719H7.57812V7.57812H7.01562C6.86644 7.57812 6.72337 7.51886 6.61788 7.41337C6.51239 7.30788 6.45312 7.16481 6.45312 7.01562C6.45312 6.86644 6.51239 6.72337 6.61788 6.61788C6.72337 6.51239 6.86644 6.45312 7.01562 6.45312H8.14062C8.28981 6.45312 8.43288 6.51239 8.53837 6.61788C8.64386 6.72337 8.70312 6.86644 8.70312 7.01562V10.6719H9.6875C9.83668 10.6719 9.97976 10.7311 10.0852 10.8366C10.1907 10.9421 10.25 11.0852 10.25 11.2344C10.25 11.3836 10.1907 11.5266 10.0852 11.6321C9.97976 11.7376 9.83668 11.7969 9.6875 11.7969Z" fill="black"/>
</svg>
