<svg width="24" height="21" viewBox="0 0 24 21" fill="none" xmlns="http://www.w3.org/2000/svg">
<path d="M11.8726 0.8125C5.72243 0.8125 0.71875 5.29904 0.71875 10.8125C0.71875 16.3346 5.71331 20.8125 11.8726 20.8125C18.0228 20.8125 23.0264 16.3264 23.0264 10.8125C23.0264 5.2899 18.0324 0.8125 11.8726 0.8125ZM11.8726 15.8606C10.5357 15.8606 9.25361 15.3844 8.3083 14.5369C7.36299 13.6894 6.83192 12.5399 6.83192 11.3413C6.83192 10.1428 7.36299 8.99329 8.3083 8.14577C9.25361 7.29825 10.5357 6.82212 11.8726 6.82212H12.0984L11.3417 6.14423C11.2009 6.018 11.1218 5.84679 11.1218 5.66827C11.1218 5.48975 11.2009 5.31854 11.3417 5.19231C11.4825 5.06608 11.6735 4.99516 11.8726 4.99516C12.0717 4.99516 12.2627 5.06608 12.4035 5.19231L14.5484 7.11539C14.6182 7.17789 14.6735 7.25209 14.7112 7.33376C14.7489 7.41542 14.7684 7.50295 14.7684 7.59135C14.7684 7.67974 14.7489 7.76727 14.7112 7.84894C14.6735 7.9306 14.6182 8.00481 14.5484 8.06731L12.4035 9.99038C12.2627 10.1166 12.0717 10.1875 11.8726 10.1875C11.6735 10.1875 11.4825 10.1166 11.3417 9.99038C11.2009 9.86415 11.1218 9.69294 11.1218 9.51442C11.1218 9.3359 11.2009 9.16469 11.3417 9.03846L12.307 8.17308C12.1793 8.16827 12.0335 8.16827 11.8726 8.16827C11.1726 8.16827 10.4883 8.35437 9.90632 8.70303C9.3243 9.05169 8.87068 9.54726 8.6028 10.1271C8.33493 10.7069 8.26484 11.3449 8.4014 11.9604C8.53796 12.5759 8.87504 13.1413 9.37 13.585C9.86497 14.0288 10.4956 14.331 11.1821 14.4535C11.8687 14.5759 12.5803 14.5131 13.227 14.2729C13.8737 14.0327 14.4264 13.626 14.8153 13.1042C15.2042 12.5824 15.4118 11.9689 15.4118 11.3413C15.4118 11.1628 15.4909 10.9916 15.6317 10.8654C15.7725 10.7392 15.9634 10.6683 16.1625 10.6683C16.3616 10.6683 16.5526 10.7392 16.6934 10.8654C16.8342 10.9916 16.9133 11.1628 16.9133 11.3413C16.9117 12.5395 16.3801 13.6882 15.4352 14.5354C14.4902 15.3826 13.209 15.8592 11.8726 15.8606Z" fill="#717171"/>
</svg>
