<svg width="18" height="11" viewBox="0 0 18 11" fill="none" xmlns="http://www.w3.org/2000/svg">
<path d="M15.4568 0.25C15.2054 0.250095 14.9575 0.318561 14.7327 0.449964C14.508 0.581367 14.3126 0.772088 14.1621 1.00698C14.0115 1.24188 13.91 1.51448 13.8656 1.80315C13.8211 2.09181 13.835 2.38859 13.906 2.66992L11.3969 5.5968C11.066 5.46819 10.7083 5.46819 10.3774 5.5968L8.51728 3.42666C8.57849 3.14801 8.58427 2.85671 8.53419 2.57505C8.48411 2.29339 8.37948 2.02881 8.22832 1.80156C8.07715 1.5743 7.88345 1.39038 7.66201 1.26386C7.44058 1.13734 7.19728 1.07156 6.95071 1.07156C6.70415 1.07156 6.46085 1.13734 6.23941 1.26386C6.01798 1.39038 5.82427 1.5743 5.67311 1.80156C5.52194 2.02881 5.41732 2.29339 5.36724 2.57505C5.31716 2.85671 5.32294 3.14801 5.38415 3.42666L2.27317 7.05367C1.92779 6.9344 1.55818 6.95281 1.22277 7.10602C0.887356 7.25922 0.605275 7.53847 0.421112 7.89962C0.236948 8.26078 0.161206 8.68324 0.205857 9.10023C0.250508 9.51722 0.413005 9.90496 0.667665 10.2022C0.922324 10.4994 1.25462 10.6891 1.61203 10.7413C1.96944 10.7935 2.33157 10.7053 2.64119 10.4905C2.95081 10.2758 3.19026 9.9468 3.32168 9.55554C3.4531 9.16427 3.46901 8.73307 3.36688 8.33008L6.43849 4.74695C6.76938 4.87564 7.12712 4.87564 7.45802 4.74695L9.31849 6.9175C9.25728 7.19615 9.25149 7.48745 9.30157 7.76911C9.35166 8.05077 9.45628 8.31535 9.60745 8.5426C9.75861 8.76986 9.95232 8.95378 10.1738 9.0803C10.3952 9.20682 10.6385 9.2726 10.885 9.2726C11.1316 9.2726 11.3749 9.20682 11.5964 9.0803C11.8178 8.95378 12.0115 8.76986 12.1627 8.5426C12.3138 8.31535 12.4184 8.05077 12.4685 7.76911C12.5186 7.48745 12.5128 7.19615 12.4516 6.9175L14.9997 3.94633C15.2222 4.02289 15.4562 4.04274 15.6858 4.00452C15.9154 3.9663 16.1352 3.87091 16.3305 3.72482C16.5257 3.57873 16.6917 3.38535 16.8172 3.15782C16.9427 2.93028 17.0249 2.67391 17.058 2.40609C17.0911 2.13828 17.0744 1.86529 17.0091 1.60564C16.9439 1.34599 16.8315 1.10576 16.6796 0.901258C16.5277 0.696752 16.3399 0.53275 16.1289 0.420381C15.9179 0.308012 15.6887 0.249904 15.4568 0.25Z" fill="#717171"/>
</svg>
