<svg width="17" height="17" viewBox="0 0 17 17" fill="none" xmlns="http://www.w3.org/2000/svg">
<path d="M15.9096 2.95387C15.8262 2.84109 15.7211 2.75027 15.6019 2.68798C15.4828 2.62569 15.3526 2.5935 15.2208 2.59375H3.92658L3.6991 1.16723C3.67485 1.01528 3.60292 0.87763 3.49597 0.778467C3.38901 0.679305 3.25386 0.624968 3.11426 0.625H0.739258C0.581785 0.625 0.430763 0.694141 0.319413 0.817211C0.208063 0.940282 0.145508 1.1072 0.145508 1.28125C0.145508 1.4553 0.208063 1.62222 0.319413 1.74529C0.430763 1.86836 0.581785 1.9375 0.739258 1.9375H2.61625L4.31066 12.5515C4.33492 12.7035 4.40684 12.8411 4.5138 12.9403C4.62076 13.0394 4.7559 13.0938 4.89551 13.0938H14.3955C14.553 13.0938 14.704 13.0246 14.8154 12.9015C14.9267 12.7785 14.9893 12.6115 14.9893 12.4375C14.9893 12.2635 14.9267 12.0965 14.8154 11.9735C14.704 11.8504 14.553 11.7812 14.3955 11.7812H5.39352L5.18422 10.4688H14.1521C14.358 10.4685 14.5575 10.3896 14.7168 10.2454C14.8761 10.1012 14.9855 9.90061 15.0264 9.67756L16.0951 3.77131C16.1209 3.62837 16.1176 3.48089 16.0855 3.33953C16.0534 3.19817 15.9933 3.06644 15.9096 2.95387V2.95387Z" fill="#717171"/>
<path d="M6.1875 16.625C6.84334 16.625 7.375 16.0374 7.375 15.3125C7.375 14.5876 6.84334 14 6.1875 14C5.53166 14 5 14.5876 5 15.3125C5 16.0374 5.53166 16.625 6.1875 16.625Z" fill="#717171"/>
<path d="M14.1875 16.625C14.8433 16.625 15.375 16.0374 15.375 15.3125C15.375 14.5876 14.8433 14 14.1875 14C13.5317 14 13 14.5876 13 15.3125C13 16.0374 13.5317 16.625 14.1875 16.625Z" fill="#717171"/>
</svg>
