<svg width="15" height="15" viewBox="0 0 15 15" fill="none" xmlns="http://www.w3.org/2000/svg">
    <path
        d="M15 3.21425C15 2.64592 14.7742 2.10088 14.3724 1.69901C13.9705 1.29715 13.4255 1.07138 12.8571 1.07138H12.3214V0.550734C12.3214 0.262452 12.0998 0.0150181 11.8115 0.000620754C11.7391 -0.00286917 11.6667 0.00838332 11.5987 0.0336965C11.5308 0.0590096 11.4687 0.0978564 11.4162 0.147883C11.3637 0.197909 11.3219 0.258074 11.2933 0.324731C11.2647 0.391388 11.25 0.463149 11.25 0.535667V1.07138H3.75V0.550734C3.75 0.262452 3.52835 0.0150181 3.24007 0.000620754C3.16763 -0.00286917 3.09525 0.00838332 3.02729 0.0336965C2.95933 0.0590096 2.89722 0.0978564 2.84472 0.147883C2.79222 0.197909 2.75043 0.258074 2.72187 0.324731C2.69331 0.391388 2.67858 0.463149 2.67857 0.535667V1.07138H2.14286C1.57454 1.07138 1.02949 1.29715 0.627628 1.69901C0.225765 2.10088 0 2.64592 0 3.21425V3.61603C0 3.65155 0.0141103 3.68562 0.0392268 3.71074C0.0643433 3.73585 0.0984085 3.74996 0.133929 3.74996H14.8661C14.9016 3.74996 14.9357 3.73585 14.9608 3.71074C14.9859 3.68562 15 3.65155 15 3.61603V3.21425ZM0 12.8571C0 13.4255 0.225765 13.9705 0.627628 14.3724C1.02949 14.7742 1.57454 15 2.14286 15H12.8571C13.4255 15 13.9705 14.7742 14.3724 14.3724C14.7742 13.9705 15 13.4255 15 12.8571V4.92184C15 4.8952 14.9894 4.86965 14.9706 4.85082C14.9517 4.83198 14.9262 4.8214 14.8996 4.8214H0.100446C0.0738064 4.8214 0.0482575 4.83198 0.0294201 4.85082C0.0105828 4.86965 0 4.8952 0 4.92184V12.8571ZM11.5179 5.89283C11.6768 5.89283 11.8322 5.93996 11.9643 6.02825C12.0964 6.11655 12.1994 6.24205 12.2603 6.38889C12.3211 6.53572 12.337 6.69729 12.306 6.85317C12.275 7.00905 12.1984 7.15223 12.0861 7.26461C11.9737 7.377 11.8305 7.45353 11.6746 7.48454C11.5187 7.51554 11.3572 7.49963 11.2103 7.43881C11.0635 7.37799 10.938 7.27499 10.8497 7.14284C10.7614 7.0107 10.7143 6.85533 10.7143 6.6964C10.7143 6.48328 10.7989 6.27889 10.9496 6.12819C11.1003 5.97749 11.3047 5.89283 11.5179 5.89283ZM11.5179 8.57141C11.6768 8.57141 11.8322 8.61854 11.9643 8.70683C12.0964 8.79513 12.1994 8.92063 12.2603 9.06747C12.3211 9.2143 12.337 9.37587 12.306 9.53175C12.275 9.68763 12.1984 9.83081 12.0861 9.94319C11.9737 10.0556 11.8305 10.1321 11.6746 10.1631C11.5187 10.1941 11.3572 10.1782 11.2103 10.1174C11.0635 10.0566 10.938 9.95357 10.8497 9.82142C10.7614 9.68928 10.7143 9.53391 10.7143 9.37498C10.7143 9.16186 10.7989 8.95747 10.9496 8.80677C11.1003 8.65607 11.3047 8.57141 11.5179 8.57141ZM8.83929 5.89283C8.99822 5.89283 9.15358 5.93996 9.28573 6.02825C9.41787 6.11655 9.52087 6.24205 9.58169 6.38889C9.64251 6.53572 9.65842 6.69729 9.62742 6.85317C9.59641 7.00905 9.51988 7.15223 9.4075 7.26461C9.29511 7.377 9.15193 7.45353 8.99605 7.48454C8.84018 7.51554 8.67861 7.49963 8.53177 7.43881C8.38494 7.37799 8.25944 7.27499 8.17114 7.14284C8.08284 7.0107 8.03571 6.85533 8.03571 6.6964C8.03571 6.48328 8.12038 6.27889 8.27108 6.12819C8.42177 5.97749 8.62617 5.89283 8.83929 5.89283ZM8.83929 8.57141C8.99822 8.57141 9.15358 8.61854 9.28573 8.70683C9.41787 8.79513 9.52087 8.92063 9.58169 9.06747C9.64251 9.2143 9.65842 9.37587 9.62742 9.53175C9.59641 9.68763 9.51988 9.83081 9.4075 9.94319C9.29511 10.0556 9.15193 10.1321 8.99605 10.1631C8.84018 10.1941 8.67861 10.1782 8.53177 10.1174C8.38494 10.0566 8.25944 9.95357 8.17114 9.82142C8.08284 9.68928 8.03571 9.53391 8.03571 9.37498C8.03571 9.16186 8.12038 8.95747 8.27108 8.80677C8.42177 8.65607 8.62617 8.57141 8.83929 8.57141ZM8.83929 11.25C8.99822 11.25 9.15358 11.2971 9.28573 11.3854C9.41787 11.4737 9.52087 11.5992 9.58169 11.746C9.64251 11.8929 9.65842 12.0545 9.62742 12.2103C9.59641 12.3662 9.51988 12.5094 9.4075 12.6218C9.29511 12.7342 9.15193 12.8107 8.99605 12.8417C8.84018 12.8727 8.67861 12.8568 8.53177 12.796C8.38494 12.7351 8.25944 12.6322 8.17114 12.5C8.08284 12.3679 8.03571 12.2125 8.03571 12.0536C8.03571 11.8404 8.12038 11.636 8.27108 11.4853C8.42177 11.3347 8.62617 11.25 8.83929 11.25ZM6.16071 8.57141C6.31965 8.57141 6.47501 8.61854 6.60715 8.70683C6.7393 8.79513 6.8423 8.92063 6.90312 9.06747C6.96394 9.2143 6.97985 9.37587 6.94885 9.53175C6.91784 9.68763 6.84131 9.83081 6.72892 9.94319C6.61654 10.0556 6.47336 10.1321 6.31748 10.1631C6.16161 10.1941 6.00003 10.1782 5.8532 10.1174C5.70637 10.0566 5.58087 9.95357 5.49257 9.82142C5.40427 9.68928 5.35714 9.53391 5.35714 9.37498C5.35714 9.16186 5.4418 8.95747 5.5925 8.80677C5.7432 8.65607 5.94759 8.57141 6.16071 8.57141ZM6.16071 11.25C6.31965 11.25 6.47501 11.2971 6.60715 11.3854C6.7393 11.4737 6.8423 11.5992 6.90312 11.746C6.96394 11.8929 6.97985 12.0545 6.94885 12.2103C6.91784 12.3662 6.84131 12.5094 6.72892 12.6218C6.61654 12.7342 6.47336 12.8107 6.31748 12.8417C6.16161 12.8727 6.00003 12.8568 5.8532 12.796C5.70637 12.7351 5.58087 12.6322 5.49257 12.5C5.40427 12.3679 5.35714 12.2125 5.35714 12.0536C5.35714 11.8404 5.4418 11.636 5.5925 11.4853C5.7432 11.3347 5.94759 11.25 6.16071 11.25ZM3.48214 8.57141C3.64107 8.57141 3.79644 8.61854 3.92858 8.70683C4.06073 8.79513 4.16373 8.92063 4.22455 9.06747C4.28537 9.2143 4.30128 9.37587 4.27027 9.53175C4.23927 9.68763 4.16273 9.83081 4.05035 9.94319C3.93797 10.0556 3.79479 10.1321 3.63891 10.1631C3.48303 10.1941 3.32146 10.1782 3.17463 10.1174C3.0278 10.0566 2.9023 9.95357 2.814 9.82142C2.7257 9.68928 2.67857 9.53391 2.67857 9.37498C2.67857 9.16186 2.76323 8.95747 2.91393 8.80677C3.06463 8.65607 3.26902 8.57141 3.48214 8.57141ZM3.48214 11.25C3.64107 11.25 3.79644 11.2971 3.92858 11.3854C4.06073 11.4737 4.16373 11.5992 4.22455 11.746C4.28537 11.8929 4.30128 12.0545 4.27027 12.2103C4.23927 12.3662 4.16273 12.5094 4.05035 12.6218C3.93797 12.7342 3.79479 12.8107 3.63891 12.8417C3.48303 12.8727 3.32146 12.8568 3.17463 12.796C3.0278 12.7351 2.9023 12.6322 2.814 12.5C2.7257 12.3679 2.67857 12.2125 2.67857 12.0536C2.67857 11.8404 2.76323 11.636 2.91393 11.4853C3.06463 11.3347 3.26902 11.25 3.48214 11.25Z"
        fill="#717171" />
</svg>