<svg width="18" height="18" viewBox="0 0 18 18" fill="none" xmlns="http://www.w3.org/2000/svg">
<path d="M14.7193 11.9376C13.8638 11.9373 13.0422 12.2468 12.4308 12.7997L6.47077 9.70357C6.59324 9.2366 6.59324 8.74934 6.47077 8.28237L12.4289 5.1862C12.9856 5.68647 13.7167 5.98735 14.4915 6.03497C15.2663 6.0826 16.0342 5.87387 16.6576 5.44614C17.2811 5.01842 17.7194 4.39963 17.8941 3.70055C18.0689 3.00148 17.9686 2.26777 17.6113 1.63076C17.254 0.993764 16.6629 0.49507 15.944 0.223962C15.225 -0.0471467 14.4251 -0.072968 13.6874 0.151121C12.9498 0.375209 12.3225 0.834576 11.9179 1.44698C11.5134 2.05939 11.3579 2.78485 11.4794 3.49349L5.38065 6.66327C4.90161 6.2945 4.31875 6.0595 3.70036 5.9858C3.08196 5.9121 2.45364 6.00275 1.88901 6.24714C1.32437 6.49152 0.846799 6.87952 0.512242 7.36567C0.177686 7.85182 0 8.416 0 8.9921C0 9.56821 0.177686 10.1324 0.512242 10.6185C0.846799 11.1047 1.32437 11.4927 1.88901 11.7371C2.45364 11.9815 3.08196 12.0721 3.70036 11.9984C4.31875 11.9247 4.90161 11.6897 5.38065 11.3209L11.4794 14.4925C11.374 15.1047 11.4742 15.732 11.7667 16.2899C12.0591 16.8478 12.5296 17.3095 13.1148 17.6127C13.7 17.9159 14.3717 18.046 15.0394 17.9855C15.7071 17.925 16.3387 17.6769 16.8491 17.2744C17.3594 16.872 17.7239 16.3347 17.8935 15.7349C18.0631 15.1351 18.0295 14.5018 17.7974 13.9201C17.5653 13.3385 17.1458 12.8366 16.5954 12.4821C16.045 12.1276 15.3902 11.9376 14.7193 11.9376Z" fill="#717171"/>
</svg>
